<svg width="24" height="24" viewBox="0 0 24 24" fill="none" xmlns="http://www.w3.org/2000/svg">
<path d="M13.365 2.83C15.1131 3.05996 16.7591 3.78476 18.109 4.919C18.447 5.203 18.445 5.713 18.133 6.025L16.517 7.641C16.205 7.953 15.701 7.947 15.346 7.685C14.4605 7.0307 13.3951 6.6647 12.2944 6.63666C11.1938 6.60862 10.1111 6.9199 9.19343 7.52826C8.27574 8.13662 7.56744 9.01259 7.16467 10.0373C6.76189 11.062 6.68414 12.1858 6.94196 13.2562C7.19979 14.3266 7.7807 15.2918 8.60587 16.0207C9.43104 16.7497 10.4605 17.2071 11.5545 17.3309C12.6486 17.4547 13.7542 17.2389 14.7214 16.7128C15.6886 16.1867 16.4705 15.3757 16.961 14.39H13.051C12.8388 14.39 12.6353 14.3057 12.4853 14.1557C12.3353 14.0057 12.251 13.8022 12.251 13.59V11.3C12.251 11.0878 12.3353 10.8843 12.4853 10.7343C12.6353 10.5843 12.8388 10.5 13.051 10.5H20.544C20.86 10.5 21.154 10.686 21.225 10.995C21.538 12.357 21.1 14.241 21.067 14.379L21.063 14.395C20.535 16.358 19.402 18.101 17.789 19.339C16.5822 20.2649 15.1656 20.8788 13.6648 21.1265C12.164 21.3742 10.6253 21.248 9.18494 20.759C7.74459 20.27 6.44705 19.4333 5.40726 18.3231C4.36747 17.2129 3.61751 15.8634 3.2238 14.3941C2.8301 12.9249 2.80481 11.3812 3.15016 9.89983C3.49552 8.41846 4.20087 7.04511 5.20373 5.90143C6.20659 4.75776 7.47602 3.87904 8.89958 3.34312C10.3231 2.8072 11.8569 2.63161 13.365 2.83Z" stroke="white" stroke-width="1.5" stroke-linecap="round" stroke-linejoin="round"/>
</svg>
